<?xml version="1.0" encoding="utf-8"?>
<!-- Generator: Adobe Illustrator 16.0.0, SVG Export Plug-In . SVG Version: 6.00 Build 0)  -->
<!DOCTYPE svg PUBLIC "-//W3C//DTD SVG 1.1//EN" "http://www.w3.org/Graphics/SVG/1.1/DTD/svg11.dtd">
<svg version="1.1" id="Ebene_1" xmlns="http://www.w3.org/2000/svg" xmlns:xlink="http://www.w3.org/1999/xlink" x="0px" y="0px"
	 width="841.89px" height="595.28px" viewBox="0 0 841.89 595.28" enable-background="new 0 0 841.89 595.28" xml:space="preserve">
<g>
	<path fill="#020203" d="M293.396,187.786c33.531,22.124,56.983,48.109,70.345,77.95c11.159,24.915,17.64,48.416,19.484,70.516
		l46.072-302.636H54.015v133.775c36.874-8.523,71.555-12.791,104.049-12.791C214.755,154.601,259.866,165.663,293.396,187.786z"/>
	<polygon fill="#020203" points="542.68,33.616 502.927,307.393 624.951,160.825 758.036,160.825 758.036,33.616 	"/>
	<path fill="#D41116" d="M342.482,464.501c12.465-16.427,22.098-33.292,28.921-50.592l11.822-77.657
		c-1.844-22.1-8.325-45.601-19.484-70.516c-13.362-29.841-36.814-55.827-70.345-77.95c-33.531-22.123-78.642-33.185-135.333-33.185
		c-32.494,0-67.175,4.267-104.049,12.791L69.571,276.28c22.588-7.373,36.76-11.634,42.518-12.79
		c13.136-3.225,26.85-4.84,41.136-4.84c26.503,0,48.168,5.072,64.987,15.21c16.825,10.144,29.037,22.528,36.642,37.161
		c7.605,14.637,11.407,27.826,11.407,39.58c0,15.441-5.298,30.419-15.901,44.938c-10.597,14.519-31.916,21.777-63.95,21.777
		c-16.36,0-32.607-2.301-48.741-6.913c-16.128-4.607-37.679-13.249-64.642-25.926l18.321,118.222
		c14.519,4.612,26.218,7.95,35.086,10.024c8.874,2.074,18.553,3.63,29.037,4.667c10.489,1.037,21.259,1.556,32.321,1.556
		C263.382,518.945,314.947,500.797,342.482,464.501z"/>
	<path fill="#D41116" d="M502.927,307.393L542.68,33.616H429.298l-46.072,302.636c0.365,4.375,0.565,8.701,0.565,12.966
		c0,22.204-4.136,43.767-12.388,64.691l-15.043,98.815h115.456l24.89-165.579l116.146,165.579h125.136L612.852,336.43
		l145.185-175.604H624.951L502.927,307.393z"/>
	<path fill="#D41116" d="M383.791,349.218c0-4.265-0.2-8.591-0.565-12.966l-11.822,77.657
		C379.655,392.984,383.791,371.422,383.791,349.218z"/>
</g>
</svg>
